<?xml version="1.0" encoding="UTF-8"?>
<svg width="157px" height="58px" viewBox="0 0 157 58" version="1.1" xmlns="http://www.w3.org/2000/svg" xmlns:xlink="http://www.w3.org/1999/xlink">
    <!-- Generator: Sketch 63.1 (92452) - https://sketch.com -->
    <title>Artboard Copy</title>
    <desc>Created with Sketch.</desc>
    <defs>
        <path d="M11.25,14.5 L5.29999998,14.5 L3.77499998,19 L0.224999976,19 L6.42499998,1.5 L10.125,1.5 L16.325,19 L12.775,19 L11.25,14.5 Z M10.325,11.575 L8.27499998,5.275 L6.24999998,11.575 L10.325,11.575 Z M25.15,5.6 C28.875,5.6 29.675,8.675 29.675,11.45 L29.675,19 L26.225,19 L26.225,11.05 C26.225,9.6 25.225,8.7 24.05,8.7 C22.625,8.7 21.725,9.75 21.725,11.15 L21.725,19 L18.275,19 L18.275,5.925 L21.65,5.925 L21.65,7.45 C22.2,6.55 23.45,5.6 25.15,5.6 Z M31.925,14.95 C31.925,12.375 33.95,10.625 37,10.625 C38.325,10.625 39.35,11.025 39.825,11.35 L39.825,10.5 C39.825,9.35 38.975,8.575 37.45,8.575 C36.15,8.575 34.95,9 33.975,9.5 L32.675,7.15 C33.85,6.35 35.825,5.6 37.825,5.6 C42.025,5.6 43.275,7.8 43.275,10.725 L43.275,19 L40.225,19 L40,18.15 C39.325,18.875 38.325,19.325 36.825,19.325 C34.175,19.325 31.925,17.7 31.925,14.95 Z M35.375,14.85 C35.375,15.925 36.35,16.65 37.65,16.65 C38.95,16.65 39.9,15.95 39.9,14.85 C39.9,13.7 38.95,13.025 37.625,13.025 C36.3,13.025 35.375,13.775 35.375,14.85 Z M47.175,22.6 L48.225,19.95 C48.65,20.175 50.15,20.85 51.95,20.85 C53.825,20.85 55.55,20.275 55.55,18.25 L55.55,17.65 C55.275,18.025 54,19.325 51.725,19.325 C47.95,19.325 45.475,16.5 45.475,12.475 C45.475,8.45 48.125,5.6 51.85,5.6 C54.05,5.6 55.375,6.8 55.75,7.3 L55.75,5.925 L59,5.925 L59,17.35 C59,22.225 55.825,23.8 51.975,23.8 C50.175,23.8 48.35,23.25 47.175,22.6 Z M55.65,12.45 C55.65,10.225 54.3,8.65 52.275,8.65 C50.325,8.65 48.95,10.15 48.95,12.45 C48.95,14.75 50.35,16.275 52.3,16.275 C54.3,16.275 55.65,14.775 55.65,12.45 Z M68.975,5.6 L68.975,9.1 C66.4,9.1 65.45,10.7 65.45,13.3 L65.45,19 L62,19 L62,5.925 L65.375,5.925 L65.375,7.825 C65.95,6.525 67.25,5.6 68.975,5.6 Z M70.65,14.95 C70.65,12.375 72.675,10.625 75.725,10.625 C77.05,10.625 78.075,11.025 78.55,11.35 L78.55,10.5 C78.55,9.35 77.7,8.575 76.175,8.575 C74.875,8.575 73.675,9 72.7,9.5 L71.4,7.15 C72.575,6.35 74.55,5.6 76.55,5.6 C80.75,5.6 82,7.8 82,10.725 L82,19 L78.95,19 L78.725,18.15 C78.05,18.875 77.05,19.325 75.55,19.325 C72.9,19.325 70.65,17.7 70.65,14.95 Z M74.1,14.85 C74.1,15.925 75.075,16.65 76.375,16.65 C77.675,16.65 78.625,15.95 78.625,14.85 C78.625,13.7 77.675,13.025 76.35,13.025 C75.025,13.025 74.1,13.775 74.1,14.85 Z M84.95,23.675 L84.95,5.925 L88.2,5.925 L88.2,7.3 C88.55,6.85 89.85,5.6 92.075,5.6 C95.825,5.6 98.475,8.45 98.475,12.45 C98.475,16.5 96.025,19.325 92.275,19.325 C90.025,19.325 88.725,18.075 88.4,17.65 L88.4,23.675 L84.95,23.675 Z M88.3,12.425 C88.3,14.875 89.75,16.275 91.65,16.275 C93.65,16.275 95,14.7 95,12.425 C95,10.1 93.6,8.65 91.65,8.65 C89.55,8.65 88.3,10.35 88.3,12.425 Z M107.775,5.6 C111.525,5.6 112.3,8.675 112.3,11.45 L112.3,19 L108.875,19 L108.875,11.05 C108.875,9.6 107.875,8.7 106.7,8.7 C105.25,8.7 104.325,9.75 104.325,11.15 L104.325,19 L100.875,19 L100.875,0.925 L104.325,0.925 L104.325,7.45 C104.875,6.55 106.075,5.6 107.775,5.6 Z" id="path-1"></path>
        <path d="M24.4141722,4.12256286 L26.4255252,6.13391593 C20.9604312,11.59901 21.6996484,21.335406 28.2284102,27.8641678 C28.78383,28.4195876 28.78383,29.320101 28.2284102,29.8755208 C27.6729903,30.4309407 26.7724769,30.4309407 26.2170571,29.8755208 C21.2506939,24.9091576 19.1634536,18.2466471 20.1868697,12.3725715 L5.59770507,26.9617361 C5.04228525,27.5171559 4.14177181,27.5171559 3.586352,26.9617361 C3.03093218,26.4063163 3.03093218,25.5058029 3.586352,24.950383 L24.4141722,4.12256286 L26.4255252,6.13391593 L20.1868697,12.3725715 C20.7249302,9.28427896 22.1228153,6.41391977 24.4141722,4.12256286 Z M31.853655,17.7605358 C31.853655,15.6575618 31.3953646,13.6266643 30.5211182,11.7717653 C28.2139703,6.86582751 23.2762111,3.66741647 17.7605358,3.66741647 C9.97732004,3.66741647 3.66741647,9.97644839 3.66741647,17.7605358 C3.66741647,25.5426357 9.97843582,31.853655 17.7605358,31.853655 C25.5426357,31.853655 31.853655,25.5426357 31.853655,17.7605358 Z M34.6981378,17.7605358 C34.6981378,27.1136002 27.1136002,34.6981378 17.7605358,34.6981378 C8.40747136,34.6981378 0.82293368,27.1136002 0.82293368,17.7605358 C0.82293368,8.40539595 8.40644354,0.82293368 17.7605358,0.82293368 C24.3886463,0.82293368 30.3232676,4.66705761 33.0946521,10.560153 C34.1464394,12.7917413 34.6981378,15.2365729 34.6981378,17.7605358 Z" id="path-3"></path>
    </defs>
    <g id="Artboard-Copy" stroke="none" stroke-width="1" fill="none" fill-rule="evenodd">
        <g id="Logo/geometric-1line" transform="translate(-4.000000, 23.000000)">
            <g id="Text" transform="translate(48.000000, 7.000000)">
                <mask id="mask-2" fill="white">
                    <use xlink:href="#path-1"></use>
                </mask>
                <use id="Mask" fill="#FFBE28" xlink:href="#path-1"></use>
                <g id="🎨Color-Text" mask="url(#mask-2)" fill="#000000">
                    <g transform="translate(-4.879032, -8.782258)" id="Base">
                        <rect x="0" y="0" width="127.053308" height="39.0653362"></rect>
                    </g>
                </g>
            </g>
            <g id="Icon" transform="translate(3.000000, 0.000000)">
                <g id="Mask" transform="translate(0.000000, -0.000395)">
                    <mask id="mask-4" fill="white">
                        <use xlink:href="#path-3"></use>
                    </mask>
                    <use fill="#000000" fill-rule="nonzero" xlink:href="#path-3"></use>
                    <g id="🎨Color" mask="url(#mask-4)" fill="#003DA5">
                        <g transform="translate(-2.000000, -2.000000)" id="Base">
                            <rect x="-2.84217094e-14" y="0" width="39.5210715" height="39.5210715"></rect>
                        </g>
                    </g>
                </g>
            </g>
        </g>
        <text id="Réalisé-par" font-family="Geomanist-Book, Geomanist" font-size="16" font-weight="300" letter-spacing="0.114285716" fill="#000000">
            <tspan x="-0.361142876" y="13">Réalisé par</tspan>
        </text>
    </g>
</svg>