<?xml version="1.0" encoding="UTF-8"?>
<svg width="130px" height="51px" viewBox="0 0 130 51" version="1.1" xmlns="http://www.w3.org/2000/svg" xmlns:xlink="http://www.w3.org/1999/xlink">
    <!-- Generator: Sketch 63.1 (92452) - https://sketch.com -->
    <title>Artboard Copy</title>
    <desc>Created with Sketch.</desc>
    <g id="Artboard-Copy" stroke="none" stroke-width="1" fill="none" fill-rule="evenodd">
        <g id="Logo_panier_bleu" fill-rule="nonzero">
            <path d="M67,5.1 L69.9464309,5.1 L69.9464309,15.0456208 L75.7397885,15.0456208 L75.7397885,17.8848641 L67,17.8848641 L67,5.1 Z M77.3650243,5.1 L86.5111218,5.1 L86.5111218,7.94199975 L80.3114553,7.94199975 L80.3114553,9.97081819 L86.0025446,9.97081819 L86.0025446,12.8100614 L80.3114553,12.8100614 L80.3114553,15.0456208 L86.7128943,15.0456208 L86.7128943,17.8848641 L77.3650243,17.8848641 L77.3650243,5.1 Z M71.9807397,20.6579501 C74.6231299,20.6579501 76.5524064,22.5847763 76.5524064,25.0215637 C76.5524064,27.4583511 74.6231299,29.3851773 71.9807397,29.3851773 L69.9464309,29.3851773 L69.9464309,33.4455707 L67,33.4455707 L67,20.6579501 L71.9807397,20.6579501 Z M71.9807397,26.5431775 C72.8956259,26.5431775 73.6059755,25.8319885 73.6059755,25.0215637 C73.6059755,24.211139 72.8956259,23.4999499 71.9807397,23.4999499 L69.9464309,23.4999499 L69.9464309,26.5431775 L71.9807397,26.5431775 Z M79.8028781,31.0087834 L78.9902602,33.4428142 L75.941561,33.4428142 L80.5132277,20.6579501 L83.5646909,20.6579501 L88.1363577,33.4428142 L85.0876585,33.4428142 L84.2750406,31.0087834 L79.8028781,31.0087834 L79.8028781,31.0087834 Z M83.4624227,28.4727603 L82.0417233,24.211139 L80.61826,28.4727603 L83.4624227,28.4727603 L83.4624227,28.4727603 Z M100.126618,20.6579501 L100.126618,33.4428142 L97.4842276,33.4428142 L92.3017154,25.9339807 L92.3017154,33.4428142 L89.3552845,33.4428142 L89.3552845,20.6579501 L91.9976747,20.6579501 L97.1801869,28.1667836 L97.1801869,20.6579501 L100.126618,20.6579501 Z M102.769008,20.6579501 L105.715439,20.6579501 L105.715439,33.4428142 L102.769008,33.4428142 L102.769008,20.6579501 Z M108.357829,20.6579501 L117.501163,20.6579501 L117.501163,23.4999499 L111.30426,23.4999499 L111.30426,25.5287683 L116.992585,25.5287683 L116.992585,28.3707681 L111.30426,28.3707681 L111.30426,30.603571 L117.705699,30.603571 L117.705699,33.4428142 L108.357829,33.4428142 L108.357829,20.6579501 Z M125.124293,20.6579501 C127.766683,20.6579501 129.593691,22.4827841 129.593691,24.7183436 C129.593691,27.5575868 127.175185,28.571996 127.155837,28.571996 L130,33.4428142 L126.749528,33.4428142 L124.413943,29.1811928 L122.890975,29.1811928 L122.890975,33.4428142 L119.944544,33.4428142 L119.944544,20.6579501 L125.124293,20.6579501 Z M125.124293,26.3391931 C126.141447,26.3391931 126.749528,25.7299962 126.749528,24.9195715 C126.749528,24.1063902 126.141447,23.4971933 125.124293,23.4971933 L122.888211,23.4971933 L122.888211,26.3391931 L125.124293,26.3391931 Z M76.9587154,45.2491041 C76.9587154,47.2779226 75.2312113,49.0035209 72.7933576,49.0035209 L67.002764,49.0035209 L67.002764,36.2186568 L72.4893169,36.2186568 C74.8249024,36.2186568 76.4529022,37.8422629 76.4529022,39.7690891 C76.4529022,41.4946874 74.9271706,42.2031199 74.9271706,42.2031199 C74.9271706,42.2031199 76.9587154,43.0163012 76.9587154,45.2491041 M69.9464309,41.2907029 L72.1825122,41.2907029 C72.9951301,41.2907029 73.6059755,40.6815061 73.6059755,39.970317 C73.6059755,39.2618845 72.9951301,38.6526876 72.1825122,38.6526876 L69.9464309,38.6526876 L69.9464309,41.2907029 L69.9464309,41.2907029 Z M72.4865529,46.5667335 C73.401439,46.5667335 74.1117887,45.858301 74.1117887,45.0451197 C74.1117887,44.2319384 73.401439,43.5235058 72.4865529,43.5235058 L69.9464309,43.5235058 L69.9464309,46.5667335 L72.4865529,46.5667335 Z M78.9902602,36.2159003 L81.9366911,36.2159003 L81.9366911,46.1615211 L87.7300487,46.1615211 L87.7300487,49.0007643 L78.9902602,49.0007643 L78.9902602,36.2159003 Z M89.3552845,36.2159003 L98.501382,36.2159003 L98.501382,39.0579 L92.3017154,39.0579 L92.3017154,41.0867185 L97.9928048,41.0867185 L97.9928048,43.9287182 L92.3017154,43.9287182 L92.3017154,46.1615211 L98.7031545,46.1615211 L98.7031545,49.0007643 L89.3552845,49.0007643 L89.3552845,36.2159003 Z M103.683894,36.2159003 L103.683894,43.8239694 C103.683894,45.3455833 104.59878,46.2607568 106.01948,46.2607568 C107.442943,46.2607568 108.357829,45.3483398 108.357829,43.8239694 L108.357829,36.2159003 L111.30426,36.2159003 L111.30426,43.8239694 C111.30426,46.9691893 109.170447,49.1 106.01948,49.1 C102.868512,49.1 100.734699,46.9691893 100.734699,43.8239694 L100.734699,36.2159003 L103.683894,36.2159003 L103.683894,36.2159003 Z" id="Shape" fill="#000000"></path>
            <path d="M21.5122183,33.5530624 L48.8721386,33.5530624 C49.9738052,33.5530624 50.946851,32.8280563 51.2516268,31.7752695 L57.9007724,8.1445129 C58.3593342,6.56672169 57.1709881,4.99170829 55.5212842,4.99170829 L13.6831149,4.99170829 C12.6541471,2.08890581 9.86922315,0.1 6.7403779,0.1 L2.49868153,0.1 C1.26839385,0.1 0.166727163,0.980563048 0.0185334206,2.19724007 C-0.160417514,3.65280801 0.980394694,4.89448524 2.40920606,4.89448524 L6.7403779,4.89448524 C7.88119011,4.89448524 8.89058522,5.65838063 9.19815714,6.76394559 L18.1876455,38.1531016 C14.6589568,38.272547 11.9131784,41.2475724 12.3242063,44.8253806 C12.6373704,47.5559594 14.8574804,49.7559781 17.6032588,50.0615362 C21.2298114,50.4643174 24.2999384,47.6504046 24.2999384,44.1225968 C24.2999384,43.5948145 24.2048707,43.0336987 24.0622691,42.6003616 L43.3190674,42.6003616 C43.1820581,42.9392534 43.0562332,43.5948145 43.0562332,44.1225968 C43.0562332,47.6559602 46.1375446,50.4726508 49.7752816,50.0587584 C52.652477,49.7309779 54.9145287,47.3198462 55.0627224,44.4392662 C55.2416734,40.9947924 52.495895,38.1503238 48.9420413,38.1503238 L22.8655348,38.1503238 L21.5122183,33.5530624 Z" id="Path" fill="#003DA5"></path>
            <path d="M43.9325272,18.4517656 C43.7242833,17.4321295 43.0940713,16.7477542 42.1734138,16.3515369 C40.9294302,15.8140113 39.7402477,16.0024223 38.6223064,16.7311297 C37.9729141,17.1550545 37.4851849,17.7313705 37.0960975,18.3963506 C36.70427,19.0668722 36.1699599,20.6268046 36.2329811,22.1839663 C36.2686018,23.0318159 36.5289067,23.8270213 37.0056758,24.5335626 C37.3098215,24.9851949 37.6742484,25.3730999 38.1811581,25.6003015 C38.6634072,25.81642 39.2415582,25.738839 39.5758445,25.3897244 C39.8416296,25.1098787 39.9293112,24.7635349 39.915611,24.3867128 C39.9101309,24.2176971 39.8388895,24.00712 39.7539479,23.8103968 C39.6580461,23.5887367 39.3703406,23.5610292 39.2168977,23.7438987 C39.2168977,23.7466695 39.2141577,23.7466695 39.2141577,23.7494402 C38.9867334,24.0154323 38.5291447,24.106867 38.2386992,23.962788 C37.5893068,23.6386102 37.2577605,22.7076381 37.3481823,21.5134447 C37.4303838,20.4273106 38.2770599,19.3106982 38.8168501,18.9172517 C39.1456564,18.7011332 39.4991231,18.5432004 39.8964306,18.5182636 C40.5019821,18.4794731 41.022592,18.6540304 41.3678386,19.191556 C41.7185652,19.734623 41.7240453,20.4799549 41.2417962,21.0285634 C40.3540193,22.0454288 42.6227824,21.765583 43.5461799,20.5242869 C43.9928084,19.911951 44.0832301,19.191556 43.9325272,18.4517656 L43.9325272,18.4517656 Z M31.9036989,18.3963506 C31.5146115,17.7285998 31.0268823,17.1522837 30.37749,16.7311297 C29.2568087,15.9996516 28.0703662,15.8112406 26.8263826,16.3515369 C25.9057251,16.7505249 25.2755131,17.4349003 25.0672692,18.4517656 C24.9165663,19.191556 25.006988,19.911951 25.4618367,20.5215161 C26.3852342,21.7628123 28.6539972,22.0398873 27.7662204,21.0257927 C27.2867113,20.4771841 27.2894513,19.7318523 27.640178,19.1887852 C27.9854246,18.6540304 28.5060344,18.4794731 29.1115859,18.5154929 C29.5088935,18.5404296 29.8596201,18.6983624 30.1911664,18.9144809 C30.7309567,19.3051567 31.5776327,20.4245399 31.6598343,21.510674 C31.750256,22.7048674 31.4187097,23.6358395 30.7693174,23.9600173 C30.4761318,24.106867 30.0212832,24.0126615 29.7938589,23.7466695 C29.7938589,23.7438987 29.7911188,23.7438987 29.7911188,23.741128 C29.6349359,23.5582585 29.3499704,23.585966 29.2540686,23.807626 C29.169127,24.0043493 29.0978857,24.2176971 29.0924056,24.3839421 C29.0787053,24.7607641 29.1636469,25.1098787 29.432172,25.3869537 C29.7664584,25.7360682 30.3446093,25.8136492 30.8268585,25.5975307 C31.3337681,25.3703292 31.698195,24.9796534 32.0023408,24.5307918 C32.4791098,23.8242505 32.7421548,23.0290452 32.7750355,22.1811956 C32.8298365,20.6295754 32.2955264,19.0668722 31.9036989,18.3963506 L31.9036989,18.3963506 Z M35.2219019,23.0872309 C35.2234776,23.4605085 34.9428192,23.7731727 34.5752496,23.807626 C34.4738677,24.9713411 34.1642418,26.1239733 33.5230697,27.1574632 C33.1011016,27.836297 33.1011016,27.836297 33.6408919,28.5289846 C34.1121808,29.1330081 34.8191143,30.1 35.3068435,30.1 C35.8164932,30.1 36.4439651,29.1607156 36.9371745,28.5289846 C37.4769647,27.8390677 37.4769647,27.8390677 37.0549967,27.1574632 C36.4110845,26.1239733 36.1014586,24.9713411 36.0000767,23.807626 L35.2219019,23.0872309 Z M33.7696743,20.3718956 C33.7833746,20.7791959 34.1067007,21.1033737 34.5094884,21.1033737 C34.912276,21.1033737 35.2356022,20.7791959 35.2493024,20.3718956 C35.3561644,17.4432125 36.441225,14.7084819 36.8467527,13.7220948 C37.178299,12.9158065 37.22762,12.2064944 36.9015538,11.1203603 C36.6686494,10.3473209 36.3562834,9.63523808 35.9452756,8.97302875 C35.8356735,8.79847148 35.5096074,8.35515143 35.3095836,8.06976415 C34.4026263,6.7785945 34.6629313,6.77582375 33.7203534,8.0669934 C33.5148495,8.34960993 33.1860433,8.79847148 33.0764412,8.97302875 C32.6654334,9.63523808 32.328407,10.3390087 32.120163,11.1203603 C31.8899987,11.9737514 31.8434178,12.9158065 32.1749641,13.7220948 C32.5804918,14.7084819 33.6628123,17.4404418 33.7696743,20.3718956 L33.7696743,20.3718956 Z" id="Shape" fill="#FFFFFF"></path>
        </g>
    </g>
</svg>