<?xml version="1.0" encoding="UTF-8"?>
<svg width="157px" height="58px" viewBox="0 0 157 58" version="1.1" xmlns="http://www.w3.org/2000/svg" xmlns:xlink="http://www.w3.org/1999/xlink">
    <!-- Generator: Sketch 63.1 (92452) - https://sketch.com -->
    <title>Artboard Copy</title>
    <desc>Created with Sketch.</desc>
    <defs>
        <path d="M11.25,14.5 L5.29999998,14.5 L3.77499998,19 L0.224999976,19 L6.42499998,1.5 L10.125,1.5 L16.325,19 L12.775,19 L11.25,14.5 Z M10.325,11.575 L8.27499998,5.275 L6.24999998,11.575 L10.325,11.575 Z M25.15,5.6 C28.875,5.6 29.675,8.675 29.675,11.45 L29.675,19 L26.225,19 L26.225,11.05 C26.225,9.6 25.225,8.7 24.05,8.7 C22.625,8.7 21.725,9.75 21.725,11.15 L21.725,19 L18.275,19 L18.275,5.925 L21.65,5.925 L21.65,7.45 C22.2,6.55 23.45,5.6 25.15,5.6 Z M31.925,14.95 C31.925,12.375 33.95,10.625 37,10.625 C38.325,10.625 39.35,11.025 39.825,11.35 L39.825,10.5 C39.825,9.35 38.975,8.575 37.45,8.575 C36.15,8.575 34.95,9 33.975,9.5 L32.675,7.15 C33.85,6.35 35.825,5.6 37.825,5.6 C42.025,5.6 43.275,7.8 43.275,10.725 L43.275,19 L40.225,19 L40,18.15 C39.325,18.875 38.325,19.325 36.825,19.325 C34.175,19.325 31.925,17.7 31.925,14.95 Z M35.375,14.85 C35.375,15.925 36.35,16.65 37.65,16.65 C38.95,16.65 39.9,15.95 39.9,14.85 C39.9,13.7 38.95,13.025 37.625,13.025 C36.3,13.025 35.375,13.775 35.375,14.85 Z M47.175,22.6 L48.225,19.95 C48.65,20.175 50.15,20.85 51.95,20.85 C53.825,20.85 55.55,20.275 55.55,18.25 L55.55,17.65 C55.275,18.025 54,19.325 51.725,19.325 C47.95,19.325 45.475,16.5 45.475,12.475 C45.475,8.45 48.125,5.6 51.85,5.6 C54.05,5.6 55.375,6.8 55.75,7.3 L55.75,5.925 L59,5.925 L59,17.35 C59,22.225 55.825,23.8 51.975,23.8 C50.175,23.8 48.35,23.25 47.175,22.6 Z M55.65,12.45 C55.65,10.225 54.3,8.65 52.275,8.65 C50.325,8.65 48.95,10.15 48.95,12.45 C48.95,14.75 50.35,16.275 52.3,16.275 C54.3,16.275 55.65,14.775 55.65,12.45 Z M68.975,5.6 L68.975,9.1 C66.4,9.1 65.45,10.7 65.45,13.3 L65.45,19 L62,19 L62,5.925 L65.375,5.925 L65.375,7.825 C65.95,6.525 67.25,5.6 68.975,5.6 Z M70.65,14.95 C70.65,12.375 72.675,10.625 75.725,10.625 C77.05,10.625 78.075,11.025 78.55,11.35 L78.55,10.5 C78.55,9.35 77.7,8.575 76.175,8.575 C74.875,8.575 73.675,9 72.7,9.5 L71.4,7.15 C72.575,6.35 74.55,5.6 76.55,5.6 C80.75,5.6 82,7.8 82,10.725 L82,19 L78.95,19 L78.725,18.15 C78.05,18.875 77.05,19.325 75.55,19.325 C72.9,19.325 70.65,17.7 70.65,14.95 Z M74.1,14.85 C74.1,15.925 75.075,16.65 76.375,16.65 C77.675,16.65 78.625,15.95 78.625,14.85 C78.625,13.7 77.675,13.025 76.35,13.025 C75.025,13.025 74.1,13.775 74.1,14.85 Z M84.95,23.675 L84.95,5.925 L88.2,5.925 L88.2,7.3 C88.55,6.85 89.85,5.6 92.075,5.6 C95.825,5.6 98.475,8.45 98.475,12.45 C98.475,16.5 96.025,19.325 92.275,19.325 C90.025,19.325 88.725,18.075 88.4,17.65 L88.4,23.675 L84.95,23.675 Z M88.3,12.425 C88.3,14.875 89.75,16.275 91.65,16.275 C93.65,16.275 95,14.7 95,12.425 C95,10.1 93.6,8.65 91.65,8.65 C89.55,8.65 88.3,10.35 88.3,12.425 Z M107.775,5.6 C111.525,5.6 112.3,8.675 112.3,11.45 L112.3,19 L108.875,19 L108.875,11.05 C108.875,9.6 107.875,8.7 106.7,8.7 C105.25,8.7 104.325,9.75 104.325,11.15 L104.325,19 L100.875,19 L100.875,0.925 L104.325,0.925 L104.325,7.45 C104.875,6.55 106.075,5.6 107.775,5.6 Z" id="path-1"></path>
        <path d="M24.4141722,4.12256286 L26.4255252,6.13391593 C20.9604312,11.59901 21.6996484,21.335406 28.2284102,27.8641678 C28.78383,28.4195876 28.78383,29.320101 28.2284102,29.8755208 C27.6729903,30.4309407 26.7724769,30.4309407 26.2170571,29.8755208 C21.2506939,24.9091576 19.1634536,18.2466471 20.1868697,12.3725715 L5.59770507,26.9617361 C5.04228525,27.5171559 4.14177181,27.5171559 3.586352,26.9617361 C3.03093218,26.4063163 3.03093218,25.5058029 3.586352,24.950383 L24.4141722,4.12256286 L26.4255252,6.13391593 L20.1868697,12.3725715 C20.7249302,9.28427896 22.1228153,6.41391977 24.4141722,4.12256286 Z M31.853655,17.7605358 C31.853655,15.6575618 31.3953646,13.6266643 30.5211182,11.7717653 C28.2139703,6.86582751 23.2762111,3.66741647 17.7605358,3.66741647 C9.97732004,3.66741647 3.66741647,9.97644839 3.66741647,17.7605358 C3.66741647,25.5426357 9.97843582,31.853655 17.7605358,31.853655 C25.5426357,31.853655 31.853655,25.5426357 31.853655,17.7605358 Z M34.6981378,17.7605358 C34.6981378,27.1136002 27.1136002,34.6981378 17.7605358,34.6981378 C8.40747136,34.6981378 0.82293368,27.1136002 0.82293368,17.7605358 C0.82293368,8.40539595 8.40644354,0.82293368 17.7605358,0.82293368 C24.3886463,0.82293368 30.3232676,4.66705761 33.0946521,10.560153 C34.1464394,12.7917413 34.6981378,15.2365729 34.6981378,17.7605358 Z" id="path-3"></path>
    </defs>
    <g id="Artboard-Copy" stroke="none" stroke-width="1" fill="none" fill-rule="evenodd">
        <g id="Logo/geometric-1line" transform="translate(-4.000000, 23.000000)">
            <g id="Text" transform="translate(48.000000, 7.000000)">
                <mask id="mask-2" fill="white">
                    <use xlink:href="#path-1"></use>
                </mask>
                <use id="Mask" fill="#FFBE28" xlink:href="#path-1"></use>
                <g id="🎨Color-Text" mask="url(#mask-2)" fill="#000000">
                    <g transform="translate(-4.879032, -8.782258)" id="Base">
                        <rect x="0" y="0" width="127.053308" height="39.0653362"></rect>
                    </g>
                </g>
            </g>
            <g id="Icon" transform="translate(3.000000, 0.000000)">
                <g id="Mask" transform="translate(0.000000, -0.000395)">
                    <mask id="mask-4" fill="white">
                        <use xlink:href="#path-3"></use>
                    </mask>
                    <use fill="#000000" fill-rule="nonzero" xlink:href="#path-3"></use>
                    <g id="🎨Color" mask="url(#mask-4)" fill="#003DA5">
                        <g transform="translate(-2.000000, -2.000000)" id="Base">
                            <rect x="-2.84217094e-14" y="0" width="39.5210715" height="39.5210715"></rect>
                        </g>
                    </g>
                </g>
            </g>
        </g>
        <path d="M2.58285712,13 L2.58285712,8.376 L4.13485712,8.376 L6.48685712,13 L8.45485712,13 L5.73485712,7.976 C6.30019046,7.74133333 6.74552379,7.36533333 7.07085712,6.848 C7.39619046,6.33066667 7.55885712,5.74666667 7.55885712,5.096 C7.55885712,4.12533333 7.22819046,3.33333333 6.56685712,2.72 C5.90552379,2.10666667 4.98819046,1.8 3.81485712,1.8 L3.81485712,1.8 L0.806857124,1.8 L0.806857124,13 L2.58285712,13 Z M3.78285712,6.856 L2.58285712,6.856 L2.58285712,3.352 L3.78285712,3.352 C4.41219046,3.352 4.89219046,3.50933333 5.22285712,3.824 C5.55352379,4.13866667 5.71885712,4.56266667 5.71885712,5.096 C5.71885712,5.65066667 5.54019046,6.08266667 5.18285712,6.392 C4.82552379,6.70133333 4.35885712,6.856 3.78285712,6.856 L3.78285712,6.856 Z M13.8651428,3.688 L15.3531428,1.4 L13.4971428,1.4 L12.3931428,3.688 L13.8651428,3.688 Z M13.6251428,13.208 C14.5104762,13.208 15.2464762,13.0186667 15.8331428,12.64 C16.4198095,12.2613333 16.8464762,11.8426667 17.1131428,11.384 L17.1131428,11.384 L15.9611428,10.52 C15.4278095,11.2986667 14.6598095,11.688 13.6571428,11.688 C12.9104762,11.688 12.2944762,11.464 11.8091428,11.016 C11.3238095,10.568 11.0758095,9.976 11.0651428,9.24 L11.0651428,9.24 L17.3531428,9.24 C17.3638095,9.144 17.3691428,9 17.3691428,8.808 C17.3691428,7.48533333 17.0118095,6.42666667 16.2971428,5.632 C15.5824762,4.83733333 14.6011428,4.44 13.3531428,4.44 C12.2011428,4.44 11.2358095,4.856 10.4571428,5.688 C9.67847617,6.52 9.28914284,7.576 9.28914284,8.856 C9.28914284,10.136 9.68914284,11.1813333 10.4891428,11.992 C11.2891428,12.8026667 12.3344762,13.208 13.6251428,13.208 Z M15.5931428,8.04 L11.1291428,8.04 C11.1824762,7.38933333 11.4171428,6.86933333 11.8331428,6.48 C12.2491428,6.09066667 12.7611428,5.896 13.3691428,5.896 C13.9878095,5.896 14.5051428,6.08533333 14.9211428,6.464 C15.3371428,6.84266667 15.5611428,7.368 15.5931428,8.04 L15.5931428,8.04 Z M21.5314286,13.208 C22.4594286,13.208 23.1740952,12.9306667 23.6754286,12.376 L23.6754286,12.376 L23.8194286,13 L25.3394286,13 L25.3394286,7.608 C25.3394286,5.496 24.2300952,4.44 22.0114286,4.44 C20.8807619,4.44 19.8194286,4.76 18.8274286,5.4 L18.8274286,5.4 L19.4994286,6.616 C20.2887619,6.17866667 21.0674286,5.96 21.8354286,5.96 C22.3900952,5.96 22.8247619,6.096 23.1394286,6.368 C23.4540952,6.64 23.6114286,7.016 23.6114286,7.496 L23.6114286,7.496 L23.6114286,8.28 C23.1634286,7.87466667 22.4967619,7.672 21.6114286,7.672 C20.6514286,7.672 19.8727619,7.928 19.2754286,8.44 C18.6780952,8.952 18.3794286,9.61333333 18.3794286,10.424 C18.3794286,11.2453333 18.6807619,11.9146667 19.2834286,12.432 C19.8860952,12.9493333 20.6354286,13.208 21.5314286,13.208 Z M21.8994286,11.816 C21.3767619,11.816 20.9500952,11.68 20.6194286,11.408 C20.2887619,11.136 20.1234286,10.792 20.1234286,10.376 C20.1234286,9.96 20.2834286,9.61866667 20.6034286,9.352 C20.9340952,9.07466667 21.3607619,8.936 21.8834286,8.936 C22.4167619,8.936 22.8460952,9.06666667 23.1714286,9.328 C23.4967619,9.58933333 23.6594286,9.93866667 23.6594286,10.376 C23.6594286,10.8026667 23.4940952,11.1493333 23.1634286,11.416 C22.8327619,11.6826667 22.4114286,11.816 21.8994286,11.816 Z M29.0377143,13 L29.0377143,1.432 L27.2937143,1.432 L27.2937143,13 L29.0377143,13 Z M31.968,3.672 C32.2773333,3.672 32.536,3.568 32.744,3.36 C32.952,3.152 33.056,2.89333333 33.056,2.584 C33.056,2.27466667 32.952,2.016 32.744,1.808 C32.536,1.6 32.2773333,1.496 31.968,1.496 C31.6586667,1.496 31.4,1.6 31.192,1.808 C30.984,2.016 30.88,2.27466667 30.88,2.584 C30.88,2.89333333 30.9813333,3.15466667 31.184,3.368 C31.3973333,3.57066667 31.6586667,3.672 31.968,3.672 Z M32.848,13 L32.848,4.648 L31.104,4.648 L31.104,13 L32.848,13 Z M37.3302857,13.208 C38.2049524,13.208 38.927619,12.9733333 39.4982857,12.504 C40.0689524,12.0346667 40.3542857,11.416 40.3542857,10.648 C40.3542857,10.104 40.2129524,9.648 39.9302857,9.28 C39.647619,8.912 39.3062857,8.64 38.9062857,8.464 C38.5062857,8.288 38.1089524,8.13066667 37.7142857,7.992 C37.319619,7.85333333 36.9809524,7.688 36.6982857,7.496 C36.415619,7.304 36.2742857,7.064 36.2742857,6.776 C36.2742857,6.49866667 36.3782857,6.27733333 36.5862857,6.112 C36.7942857,5.94666667 37.063619,5.864 37.3942857,5.864 C38.087619,5.864 38.6262857,6.17333333 39.0102857,6.792 L39.0102857,6.792 L40.2102857,5.992 C40.007619,5.58666667 39.679619,5.22666667 39.2262857,4.912 C38.7729524,4.59733333 38.1942857,4.44 37.4902857,4.44 C36.6582857,4.44 35.9729524,4.65333333 35.4342857,5.08 C34.895619,5.50666667 34.6262857,6.08266667 34.6262857,6.808 C34.6262857,7.34133333 34.7649524,7.792 35.0422857,8.16 C35.319619,8.528 35.6582857,8.80266667 36.0582857,8.984 C36.4582857,9.16533333 36.8582857,9.328 37.2582857,9.472 C37.6582857,9.616 37.9969524,9.78933333 38.2742857,9.992 C38.551619,10.1946667 38.6902857,10.44 38.6902857,10.728 C38.6902857,11.0586667 38.5729524,11.3146667 38.3382857,11.496 C38.103619,11.6773333 37.7942857,11.768 37.4102857,11.768 C36.5782857,11.768 35.911619,11.4053333 35.4102857,10.68 L35.4102857,10.68 L34.3222857,11.544 C34.9409524,12.6533333 35.943619,13.208 37.3302857,13.208 Z M45.9245714,3.688 L47.4125714,1.4 L45.5565714,1.4 L44.4525714,3.688 L45.9245714,3.688 Z M45.6845714,13.208 C46.5699048,13.208 47.3059048,13.0186667 47.8925714,12.64 C48.4792381,12.2613333 48.9059048,11.8426667 49.1725714,11.384 L49.1725714,11.384 L48.0205714,10.52 C47.4872381,11.2986667 46.7192381,11.688 45.7165714,11.688 C44.9699048,11.688 44.3539048,11.464 43.8685714,11.016 C43.3832381,10.568 43.1352381,9.976 43.1245714,9.24 L43.1245714,9.24 L49.4125714,9.24 C49.4232381,9.144 49.4285714,9 49.4285714,8.808 C49.4285714,7.48533333 49.0712381,6.42666667 48.3565714,5.632 C47.6419048,4.83733333 46.6605714,4.44 45.4125714,4.44 C44.2605714,4.44 43.2952381,4.856 42.5165714,5.688 C41.7379048,6.52 41.3485714,7.576 41.3485714,8.856 C41.3485714,10.136 41.7485714,11.1813333 42.5485714,11.992 C43.3485714,12.8026667 44.3939048,13.208 45.6845714,13.208 Z M47.6525714,8.04 L43.1885714,8.04 C43.2419048,7.38933333 43.4765714,6.86933333 43.8925714,6.48 C44.3085714,6.09066667 44.8205714,5.896 45.4285714,5.896 C46.0472381,5.896 46.5645714,6.08533333 46.9805714,6.464 C47.3965714,6.84266667 47.6205714,7.368 47.6525714,8.04 L47.6525714,8.04 Z M56.8251429,15.992 L56.8251429,11.896 C57.0064762,12.184 57.3318095,12.4746667 57.8011429,12.768 C58.2704762,13.0613333 58.8464762,13.208 59.5291429,13.208 C60.7131429,13.208 61.6704762,12.8 62.4011429,11.984 C63.1318095,11.168 63.4971429,10.1093333 63.4971429,8.808 C63.4971429,7.53866667 63.1158095,6.49333333 62.3531429,5.672 C61.5904762,4.85066667 60.6118095,4.44 59.4171429,4.44 C58.9264762,4.44 58.4704762,4.536 58.0491429,4.728 C57.6278095,4.92 57.3344762,5.096 57.1691429,5.256 C57.0038095,5.416 56.8571429,5.58133333 56.7291429,5.752 L56.7291429,5.752 L56.7291429,4.648 L55.0811429,4.648 L55.0811429,15.992 L56.8251429,15.992 Z M59.2571429,11.656 C58.5424762,11.656 57.9478095,11.4 57.4731429,10.888 C56.9984762,10.376 56.7611429,9.68266667 56.7611429,8.808 C56.7611429,8.01866667 56.9878095,7.352 57.4411429,6.808 C57.8944762,6.264 58.4944762,5.992 59.2411429,5.992 C59.9664762,5.992 60.5638095,6.25066667 61.0331429,6.768 C61.5024762,7.28533333 61.7371429,7.96533333 61.7371429,8.808 C61.7371429,9.65066667 61.5051429,10.336 61.0411429,10.864 C60.5771429,11.392 59.9824762,11.656 59.2571429,11.656 Z M67.7074286,13.208 C68.6354286,13.208 69.3500952,12.9306667 69.8514286,12.376 L69.8514286,12.376 L69.9954286,13 L71.5154286,13 L71.5154286,7.608 C71.5154286,5.496 70.4060952,4.44 68.1874286,4.44 C67.0567619,4.44 65.9954286,4.76 65.0034286,5.4 L65.0034286,5.4 L65.6754286,6.616 C66.4647619,6.17866667 67.2434286,5.96 68.0114286,5.96 C68.5660952,5.96 69.0007619,6.096 69.3154286,6.368 C69.6300952,6.64 69.7874286,7.016 69.7874286,7.496 L69.7874286,7.496 L69.7874286,8.28 C69.3394286,7.87466667 68.6727619,7.672 67.7874286,7.672 C66.8274286,7.672 66.0487619,7.928 65.4514286,8.44 C64.8540952,8.952 64.5554286,9.61333333 64.5554286,10.424 C64.5554286,11.2453333 64.8567619,11.9146667 65.4594286,12.432 C66.0620952,12.9493333 66.8114286,13.208 67.7074286,13.208 Z M68.0754286,11.816 C67.5527619,11.816 67.1260952,11.68 66.7954286,11.408 C66.4647619,11.136 66.2994286,10.792 66.2994286,10.376 C66.2994286,9.96 66.4594286,9.61866667 66.7794286,9.352 C67.1100952,9.07466667 67.5367619,8.936 68.0594286,8.936 C68.5927619,8.936 69.0220952,9.06666667 69.3474286,9.328 C69.6727619,9.58933333 69.8354286,9.93866667 69.8354286,10.376 C69.8354286,10.8026667 69.6700952,11.1493333 69.3394286,11.416 C69.0087619,11.6826667 68.5874286,11.816 68.0754286,11.816 Z M75.2137143,13 L75.2137143,9.4 C75.2137143,7.26666667 75.9977143,6.2 77.5657143,6.2 L77.5657143,6.2 L77.5657143,4.44 C77.000381,4.44 76.504381,4.584 76.0777143,4.872 C75.6510476,5.16 75.352381,5.52266667 75.1817143,5.96 L75.1817143,5.96 L75.1817143,4.648 L73.4697143,4.648 L73.4697143,13 L75.2137143,13 Z" id="Réalisépar" fill="#000000" fill-rule="nonzero"></path>
    </g>
</svg>